<?xml version="1.0" encoding="utf-8"?>
<!-- Generator: Adobe Illustrator 18.1.1, SVG Export Plug-In . SVG Version: 6.00 Build 0)  -->
<svg version="1.1" xmlns="http://www.w3.org/2000/svg" xmlns:xlink="http://www.w3.org/1999/xlink" x="0px" y="0px"
	 viewBox="0 0 864 864" enable-background="new 0 0 864 864" xml:space="preserve">
<g id="Layer_4">
	<g>
		<path fill="none" d="M499.4,354c-0.3,1.6-0.6,3.7-0.8,6.3c3.1-1.1,5.6-2.3,7.4-3.7C503.3,355.8,501.2,354.9,499.4,354z"/>
		<path fill="none" d="M642.4,363.3c-3.2-3.8-6.6-7.7-9.9-11.8c1.3,2.4,4.6,6.5,9.2,11.8C641.9,363.3,642.1,363.3,642.4,363.3z"/>
		<path fill="none" d="M463.2,204c0.3-0.8,0.5-1.5,0.8-2.1c-0.3-0.1-0.5-0.3-0.7-0.4C463.2,202.3,463.2,203.1,463.2,204z"/>
		<path fill="#FBB040" d="M694.6,187.9c4-13.3-27.7-76.2-40.4-94.2c-5.3-19.3-48.9-40.3-65.4-40.2c-16.5,0.1-46.1,6-64.7,6
			c-16.6,0.5-41.3,30.6-62.3,58s-19.4,103.2-19.2,125.9c0.2,22.7,10.9,65,22.9,73.9c2,1.4,4.9,3,8,4.4c7.9,3.5,16.3,5.4,8.4-0.3
			c-9.6-7-18.9-87.9-18.8-117.4c0-0.9,0-1.7,0-2.5c0.1-3,0.3-5.3,0.6-6.7c0.6-2.3,1.2-4.2,2-5.8c2.2-4.7,4.9-6.9,8-8.4
			c2.2-1.1,4.5-1.8,6.9-2.8c6.8-3,23.3-1,32.5-0.9c9.2,0.1,6.9-5.6,6.9-29.2c2,12.1,10.6,22,26.1,26.9s40.6,9.2,54.2,4
			c2.5,1.5,5.8,10.4,9,22.1c6.4,23.2,12.7,57,13.2,64.4c0.7,11.1-11.3,43.6-29.5,63c8.4-0.6,14.7-2.4,23.4-6.4
			c0.4-0.2,0.8-0.4,1.3-0.5c2.1-0.7,4.6-1.3,7.5-1.7c3.2-0.5,6.7-0.8,10.3-1.1c4.6-0.4,9.3-0.8,13.7-1.3c3.6-0.5,7-1,9.9-1.8
			c12.5-3.5,23-17.4,33.1-33.6C702.4,265.5,696.8,205.8,694.6,187.9z"/>
	</g>
</g>
<g id="Layer_3">
	<g>
		<path fill="#27AAE1" d="M666.5,463.9c-1.6-13.5-3.5-49.2-2-67.4c-1.1-6.3-6-13.6-12.6-21.8c-3.8-4.1-7.3-8-10.2-11.4
			c-4.6-5.3-7.9-9.5-9.2-11.8c-3.2-5.7-2.9-14.8-0.3-23.7c0.9-3.1,2.1-6.3,3.5-9.2c-3.7,0.3-7.2,0.7-10.3,1.1
			c-2.9,0.4-5.4,1-7.5,1.7c-0.5,0.2-0.9,0.3-1.3,0.5c-8.7,4-15.1,5.8-23.4,6.4c18.2-19.4,30.2-51.9,29.5-63
			c-0.5-7.4-6.8-41.2-13.2-64.4c-8,15.5-24.8,57.9-23.9,66.3c1.3,12.5,8.9,49.9,2.9,54.7c-8.6,7-30.2,17-21.5,25.4
			c0.5,0.5,1.1,0.8,1.7,1c6.4,4,29.9,20,51.8,48.3c25.6,33.1,40.6,109.9,36.1,132.5c-3.9,19.4-17.7,41-13,48.6
			c6-4.6,11.3-8.9,15.1-12c-0.4-8.5,3.5-21.1,15.8-38.7C678.1,518.9,668,477.4,666.5,463.9z"/>
		<path fill="#27AAE1" d="M477.4,594c-0.8-8.2-2.6-19.1-4.5-23.7c-3-7-9-11.5-14-3.1c-2.8,4.8-3.3,12.3-2.5,18.9
			c5.2,1.3,9.7,2.7,12.4,3.2C470.7,589.6,473.7,591.3,477.4,594z"/>
		<path fill="#27AAE1" d="M524.1,311.1c-7.6,1.3-28.8-5.5-23.3,0c2.2,2.2,10.1,11.6,14.4,8.7C519.5,316.8,531.7,309.8,524.1,311.1z"
			/>
		<path fill="#27AAE1" d="M485.9,674.3c-1.7-9.9-4.2-24.3-6-34.8c-1.4,0.8-2.7,2.1-4.1,4.2c0.6,2.9-2.9,10.1-8.2,17
			c0.4,1.8,0.8,3.6,1.2,5.3c0.2,1,0.5,1.9,0.7,2.8c1.5,5.5,2.9,9.9,4.3,11.7c4,5.5,14,5,14,5s-0.7-4-1.7-10
			C486.1,675.2,486,674.8,485.9,674.3z"/>
		<path fill="#27AAE1" d="M500,200.4c-3.1-9-17.6-16.4-26.2-19.8c-3.1,1.5-5.8,3.6-8,8.4c-0.7,1.6-1.4,3.5-2,5.8
			c-0.4,1.4-0.6,3.7-0.6,6.7c0.2,0.2,0.5,0.3,0.7,0.4c5.7,2.9,17.1,0.2,23.5,1.6c8,1.8,4.8,7.3,10,19.1C500.5,221,504,212,500,200.4
			z"/>
		<path fill="#27AAE1" d="M552.1,194.4c3.3-2.8,8-3.5,11.5-3.5c3.5,0,17.6,5,22.1,6c4.8,1.1-20.1-10.8-25.1-11
			c-5-0.3-29.1-1.3-33.6,2.5c-4.5,3.8-11.5,33.4-14,39.1c-2.1,4.9-13.1,26.6-14.4,35.1c-1.9-1.6-3.7-3.1-4.7-5c-2-3.8-0.8,2.5-2,4.5
			c-1.2,2,6.8,7.3,12.1,6.3c-0.4-0.6-0.8-1.2-1.2-1.7c0.8-0.7,1.7-2,3.2-3.6c6.5-3,13.8-1.5,12.5,1.5c-4.8,3.6-7.4,6.8-6.4,7.8
			l-4.1,3.2c-2,5.4,8.1,18.5,2,20.6c-6.1,2-1.1,6.2,3.9,7.9c5.1,1.7,19.9,4.7,26.3,7c1.9-4.8-12.8-11-16-19.2
			c-3.2-8.2-1.4-11.7,2.7-16.2c2.1-2.3,4.1-7.8,5.5-12.5c0.6-0.8,1-1.7,1.2-2.5c0.1-0.7,0.2-1.6,0.2-2.6c0.5-2.1,0.8-3.5,0.8-3.5
			l-0.8,0.7c-0.3-8-2.1-20.6-1.7-26.8c0.5-7.8,2.3-20.3,6.5-23.6c4.3-3.3,12.3-4.8,17.6-4C551.9,198.4,548.9,197.2,552.1,194.4z"/>
	</g>
</g>
<g id="Layer_2_1_">
	<g>
		<path fill="#00A651" d="M759.9,413c1.4,0.6,2.9,1.3,4.6,2C763.1,414.2,761.6,413.5,759.9,413z"/>
		<path fill="#00A651" d="M635.7,318.5c-1.4,3-2.6,6.1-3.5,9.2c3.1-3.5,8.8-6.3,17.2-10.5C645,317.7,640.2,318.1,635.7,318.5z"/>
		<path fill="#00A651" d="M568.6,348.4c-0.6-0.3-1.2-0.6-1.7-1c-8.8-8.4,12.8-18.4,21.5-25.4c6-4.8-1.6-42.2-2.9-54.7
			c-0.9-8.5,15.9-50.9,23.9-66.3c-3.2-11.7-6.5-20.7-9-22.1c-13.6,5.2-38.7,0.9-54.2-4S522,159.9,520,147.8
			c0,23.5,2.3,29.3-6.9,29.2c-9.2-0.1-25.7-2.1-32.5,0.9c-2.4,1-4.7,1.8-6.9,2.8c8.5,3.3,23,10.8,26.2,19.8
			c4,11.5,0.5,20.6-2.5,22.1c-5.3-11.8-2-17.3-10-19.1c-6.4-1.4-17.8,1.3-23.5-1.6c-0.3,0.6-0.5,1.3-0.8,2.1
			c-0.1,29.5,9.2,110.5,18.8,117.4c7.9,5.8-0.5,3.8-8.4,0.3c0.4,1.1,0.8,1.9,1.2,2.2c4.1,3,14.6,13.4,16.6,19.7
			c1.2,3.8,2.6,6.6,5.7,8.9c1.1-0.4,2.1-0.7,3-1.1c-0.3,0.5-0.5,1.4-0.8,2.5c1.7,0.9,3.9,1.8,6.6,2.6c-1.8,1.4-4.4,2.6-7.4,3.7
			c-2.7,30,0.3,122.1-0.5,141.7c-0.9,22.6,37.5,68.2,48.1,78.4s26.1,7.4,45.1,21.1c15.5,1.9,36.7-11.8,52.3-23.7
			c-4.7-7.6,9.1-29.2,13-48.6c4.5-22.6-10.5-99.3-36.1-132.5C598.5,368.3,575,352.4,568.6,348.4z M515.2,319.7
			c-4.3,2.9-12.2-6.5-14.4-8.7c-5.5-5.5,15.7,1.3,23.3,0C531.7,309.8,519.5,316.8,515.2,319.7z M556.2,200.9
			c-5.3-0.8-13.3,0.8-17.6,4c-4.3,3.3-6,15.8-6.5,23.6c-0.4,6.1,1.4,18.7,1.7,26.8l0.8-0.7c0,0-0.3,1.4-0.8,3.5c0,1-0.1,1.9-0.2,2.6
			c-0.1,0.9-0.6,1.7-1.2,2.5c-1.4,4.8-3.4,10.2-5.5,12.5c-4.1,4.5-5.9,8-2.7,16.2c3.2,8.2,17.9,14.4,16,19.2
			c-6.4-2.3-21.2-5.3-26.3-7c-5.1-1.7-10-5.8-3.9-7.9c6.1-2-4.1-15.1-2-20.6l4.1-3.2c-0.9-1,1.7-4.2,6.4-7.8c1.3-3-6-4.5-12.5-1.5
			c-1.4,1.6-2.3,2.9-3.2,3.6c0.4,0.5,0.8,1.1,1.2,1.7c-5.3,1-13.3-4.3-12.1-6.3c1.3-2,0-8.3,2-4.5c1,1.9,2.8,3.4,4.7,5
			c1.3-8.4,12.3-30.2,14.4-35.1c2.5-5.8,9.5-35.4,14-39.1c4.5-3.8,28.6-2.8,33.6-2.5c5,0.3,29.9,12.1,25.1,11c-4.5-1-18.6-6-22.1-6
			c-3.5,0-8.3,0.8-11.5,3.5C548.9,197.2,551.9,198.4,556.2,200.9z"/>
		<path fill="#00A651" d="M855.2,664.7c-5.6-17.6-13-70.1-14.7-78.6c-1.8-8.5-13.7-96.7-25-108.2c-11.1-11.3-35-57.8-46.2-54.4
			c0.8,15.7-12.9,37.9-13.1,47.5c-0.1,11.1,14.7,50.1,12.8,64c-1.9,14-7.6,40.7-7.5,49.3c0.1,8.5,7.5,90.6-6,101.1
			c0,0-0.1,0-0.1,0.1C791.3,683.4,859.4,677.7,855.2,664.7z"/>
		<path fill="#00A651" d="M641.7,363.3c2.9,3.4,6.4,7.3,10.2,11.4c-2.9-3.6-6.1-7.4-9.5-11.4C642.1,363.3,641.9,363.3,641.7,363.3z"
			/>
		<path fill="#00A651" d="M477.4,594c-3.7-2.6-6.7-4.4-8.6-4.7c-2.8-0.5-7.3-1.8-12.4-3.2c-10.7-2.8-24.1-5.6-30.6-0.8
			c-11.2,8.3-27.9,18.5-35.9,25.5c-3.6-9.3-5.9-21.7-5.1-34.7c1.2-18.7,4.4-52.5,9.9-66.8c5.5-14.3,26.6-90.6,27.9-99.2
			c1-6.6-10.2-32-11.1-42.7c-11.3-1.3-19.9-6.4-29-2.1c-10.1,4.8-35,31.2-47,33.6c-15,15.8-20.5,23.8-25.4,39.9
			c-4.9,16.1-11.8,55.2-21.5,67.3c-9.7,12.1-32.3,55.7-34.2,64.8c-0.7,3.6-1.9,7.3-2.5,10.4c-1.9,0.3-3.4,0.8-4.5,1.6
			c-12.7,9.5-34.3,24.5-34.1,37.5c0.2,13-1.9,30.9,8.6,46.4c10.5,15.5,50.3,20.9,69.5,20.9c19.1,0,117.8,1,130.7,5.1
			c12.9,4.2,41.5-10.6,34.1-20.3c2.4-1.7,4.7-3.8,6.9-6l6.8,2.5c-0.2-0.9-0.5-1.9-0.7-2.8c-1.3-0.7-2.5-1.4-3.8-2.1
			c0.9-1,1.8-2.1,2.6-3.2c5.3-6.9,8.9-14.1,8.2-17c1.3-2.1,2.7-3.4,4.1-4.2c4.9-2.7,10.5,1.4,19,6c11,6,27.1,18.7,30.1,9.8
			c3-8.9-7.1-16.9-13.9-25.9C510,622.4,490.1,603,477.4,594z"/>
	</g>
</g>
<g id="layer_1">
	<g>
		<path fill="#E6E6E6" d="M465.1,663.9c1.3,0.7,2.6,1.4,3.8,2.1c-0.4-1.7-0.8-3.5-1.2-5.3C466.8,661.8,465.9,662.9,465.1,663.9z"/>
		<path fill="#E6E6E6" d="M769.3,423.5c-0.1-2.6-0.7-5.1-1.8-7.3c-1.1-0.4-2.1-0.8-3.1-1.2c-1.7-0.7-3.2-1.3-4.6-2
			c-15.9-7.2-13.7-10.6-22.6-14.5c-10.1-4.5-68.7-54.1-104.8-47.1c3.4,4.1,6.7,8.1,9.9,11.8c3.4,4,6.6,7.8,9.5,11.4
			c6.6,8.3,11.5,15.5,12.6,21.8c-1.5,18.1,0.4,53.9,2,67.4c1.6,13.5,11.6,55,7.9,63.1c-12.3,17.6-16.2,30.2-15.8,38.7
			c-3.8,3.1-9,7.4-15.1,12c-15.7,11.9-36.8,25.6-52.3,23.7c-19-13.6-34.5-10.9-45.1-21.1s-49-55.8-48.1-78.4
			c0.8-19.7-2.2-111.8,0.5-141.7c0.2-2.6,0.5-4.7,0.8-6.3c0.2-1.1,0.5-2,0.8-2.5c-0.9,0.4-2,0.7-3,1.1c-20.5,7.1-61.3,13.7-83,9.9
			c-2.3-0.4-3,1.5-2.7,4.8c0.9,10.7,12,36.1,11.1,42.7c-1.3,8.6-22.3,84.9-27.9,99.2c-5.5,14.3-8.7,48.1-9.9,66.8
			c-0.8,12.9,1.5,25.3,5.1,34.7c8-7,24.8-17.2,35.9-25.5c6.5-4.8,19.9-2,30.6,0.8c-0.8-6.7-0.4-14.1,2.5-18.9c5-8.5,11-3.9,14,3.1
			c2,4.6,3.8,15.5,4.5,23.7c12.6,9.1,32.6,28.5,37.8,35.5c6.7,9,16.8,17.1,13.9,25.9c-3,8.9-19.1-3.8-30.1-9.8
			c-8.6-4.6-14.1-8.8-19-6c1.8,10.5,4.3,24.9,6,34.8c0.1,0.5,0.2,0.9,0.2,1.3c11.7,6.5,19.8,10.8,19.8,10.8s235,9.4,249.4-1
			c0,0,0.1,0,0.1-0.1c13.5-10.5,6-92.6,6-101.1c-0.1-8.5,5.6-35.3,7.5-49.3c1.9-14-12.9-52.9-12.8-64
			C756.3,461.4,770.1,439.2,769.3,423.5z"/>
	</g>
</g>
</svg>
